<svg width="28" height="41" viewBox="0 0 28 41" fill="none" xmlns="http://www.w3.org/2000/svg">
<path d="M14 0.5C16.4375 0.5 18.7031 1.10938 20.7969 2.32812C22.8281 3.54688 24.4531 5.17187 25.6719 7.20312C26.8906 9.29687 27.5 11.5625 27.5 14C27.5 14.9688 27.3125 16.0938 26.9375 17.375C26.625 18.4375 26.1406 19.7031 25.4844 21.1719C24.4219 23.5781 23.0312 26.2656 21.3125 29.2344C20.0625 31.4219 18.6719 33.6719 17.1406 35.9844L14 40.625L12.7812 38.8438C12.2812 38.125 11.6406 37.1719 10.8594 35.9844C9.32812 33.6719 7.9375 31.4219 6.6875 29.2344C4.96875 26.2656 3.57812 23.5781 2.51562 21.1719C1.85938 19.7031 1.375 18.4375 1.0625 17.375C0.6875 16.0938 0.5 14.9688 0.5 14C0.5 11.5625 1.10938 9.29687 2.32812 7.20312C3.54688 5.17187 5.17188 3.54688 7.20312 2.32812C9.29688 1.10938 11.5625 0.5 14 0.5ZM14 3.5C12.0938 3.5 10.3281 3.96875 8.70312 4.90625C7.10938 5.84375 5.84375 7.125 4.90625 8.75C3.96875 10.3438 3.5 12.0938 3.5 14C3.5 14.5938 3.65625 15.4375 3.96875 16.5312C4.28125 17.5938 4.70312 18.7344 5.23438 19.9531C6.14062 22.0156 7.5 24.6094 9.3125 27.7344C10.8438 30.3594 12.375 32.8281 13.9062 35.1406L14 35.2344L14.0938 35.1406C15.625 32.8281 17.1562 30.3594 18.6875 27.7344C20.5 24.6094 21.8594 22.0156 22.7656 19.9531C23.2969 18.7344 23.7188 17.5938 24.0312 16.5312C24.3438 15.4375 24.5 14.5938 24.5 14C24.5 12.0938 24.0312 10.3438 23.0938 8.75C22.1562 7.125 20.875 5.84375 19.25 4.90625C17.6562 3.96875 15.9062 3.5 14 3.5ZM14 11C14.8438 11 15.5469 11.2969 16.1094 11.8906C16.7031 12.4531 17 13.1562 17 14C17 14.8438 16.7031 15.5625 16.1094 16.1562C15.5469 16.7188 14.8438 17 14 17C13.1562 17 12.4375 16.7188 11.8438 16.1562C11.2812 15.5625 11 14.8438 11 14C11 13.1562 11.2812 12.4531 11.8438 11.8906C12.4375 11.2969 13.1562 11 14 11Z" fill="#143251"/>
</svg>
